<mxfile host="app.diagrams.net" modified="2023-06-13T14:44:08.429Z" agent="Mozilla/5.0 (Windows NT 10.0; Win64; x64) AppleWebKit/537.36 (KHTML, like Gecko) Chrome/114.0.0.0 Safari/537.36" etag="vyvD4Z0lrS9XQVHuunaN" version="21.3.8" type="github">
  <diagram name="Page-1" id="tGEptBp3FGZiE534J11y">
    <mxGraphModel dx="1434" dy="764" grid="1" gridSize="10" guides="1" tooltips="1" connect="1" arrows="1" fold="1" page="1" pageScale="1" pageWidth="1169" pageHeight="827" math="0" shadow="0">
      <root>
        <mxCell id="0" />
        <mxCell id="1" parent="0" />
        <mxCell id="yTSs1VRWwanD6nTNHNd--1" value="&lt;font style=&quot;font-size: 17px;&quot;&gt;&lt;b&gt;SaveChangeInterceptor&lt;/b&gt;&lt;/font&gt;" style="text;html=1;strokeColor=none;fillColor=none;align=center;verticalAlign=middle;whiteSpace=wrap;rounded=0;" vertex="1" parent="1">
          <mxGeometry x="30" y="60" width="190" height="30" as="geometry" />
        </mxCell>
        <mxCell id="yTSs1VRWwanD6nTNHNd--70" style="edgeStyle=orthogonalEdgeStyle;rounded=0;orthogonalLoop=1;jettySize=auto;html=1;entryX=0;entryY=0.5;entryDx=0;entryDy=0;dashed=1;" edge="1" parent="1" source="yTSs1VRWwanD6nTNHNd--2" target="yTSs1VRWwanD6nTNHNd--56">
          <mxGeometry relative="1" as="geometry" />
        </mxCell>
        <mxCell id="yTSs1VRWwanD6nTNHNd--2" value="ID - DB" style="shape=cylinder3;whiteSpace=wrap;html=1;boundedLbl=1;backgroundOutline=1;size=15;" vertex="1" parent="1">
          <mxGeometry x="620" y="140" width="60" height="80" as="geometry" />
        </mxCell>
        <mxCell id="yTSs1VRWwanD6nTNHNd--3" value="ID" style="rounded=0;whiteSpace=wrap;html=1;" vertex="1" parent="1">
          <mxGeometry x="370" y="150" width="120" height="60" as="geometry" />
        </mxCell>
        <mxCell id="yTSs1VRWwanD6nTNHNd--6" style="edgeStyle=orthogonalEdgeStyle;rounded=0;orthogonalLoop=1;jettySize=auto;html=1;entryX=0;entryY=0.5;entryDx=0;entryDy=0;entryPerimeter=0;exitX=1;exitY=0.5;exitDx=0;exitDy=0;" edge="1" parent="1" source="yTSs1VRWwanD6nTNHNd--3" target="yTSs1VRWwanD6nTNHNd--2">
          <mxGeometry relative="1" as="geometry">
            <mxPoint x="625" y="180" as="sourcePoint" />
          </mxGeometry>
        </mxCell>
        <mxCell id="yTSs1VRWwanD6nTNHNd--11" value="NarrrativeA" style="swimlane;fontStyle=0;childLayout=stackLayout;horizontal=1;startSize=30;horizontalStack=0;resizeParent=1;resizeParentMax=0;resizeLast=0;collapsible=1;marginBottom=0;whiteSpace=wrap;html=1;" vertex="1" parent="1">
          <mxGeometry x="60" y="114" width="140" height="120" as="geometry" />
        </mxCell>
        <mxCell id="yTSs1VRWwanD6nTNHNd--12" value="prop1 = 1" style="text;strokeColor=none;fillColor=none;align=left;verticalAlign=middle;spacingLeft=4;spacingRight=4;overflow=hidden;points=[[0,0.5],[1,0.5]];portConstraint=eastwest;rotatable=0;whiteSpace=wrap;html=1;" vertex="1" parent="yTSs1VRWwanD6nTNHNd--11">
          <mxGeometry y="30" width="140" height="30" as="geometry" />
        </mxCell>
        <mxCell id="yTSs1VRWwanD6nTNHNd--13" value="prop2 = 2" style="text;strokeColor=none;fillColor=none;align=left;verticalAlign=middle;spacingLeft=4;spacingRight=4;overflow=hidden;points=[[0,0.5],[1,0.5]];portConstraint=eastwest;rotatable=0;whiteSpace=wrap;html=1;" vertex="1" parent="yTSs1VRWwanD6nTNHNd--11">
          <mxGeometry y="60" width="140" height="30" as="geometry" />
        </mxCell>
        <mxCell id="yTSs1VRWwanD6nTNHNd--14" value="prop3 = 3" style="text;strokeColor=none;fillColor=none;align=left;verticalAlign=middle;spacingLeft=4;spacingRight=4;overflow=hidden;points=[[0,0.5],[1,0.5]];portConstraint=eastwest;rotatable=0;whiteSpace=wrap;html=1;" vertex="1" parent="yTSs1VRWwanD6nTNHNd--11">
          <mxGeometry y="90" width="140" height="30" as="geometry" />
        </mxCell>
        <mxCell id="yTSs1VRWwanD6nTNHNd--141" value="" style="edgeStyle=orthogonalEdgeStyle;rounded=0;orthogonalLoop=1;jettySize=auto;html=1;" edge="1" parent="1" source="yTSs1VRWwanD6nTNHNd--19" target="yTSs1VRWwanD6nTNHNd--140">
          <mxGeometry relative="1" as="geometry" />
        </mxCell>
        <mxCell id="yTSs1VRWwanD6nTNHNd--19" value="SaveChangeInterceptor" style="rounded=0;whiteSpace=wrap;html=1;dashed=1;dashPattern=8 8;" vertex="1" parent="1">
          <mxGeometry x="480" y="459" width="150" height="60" as="geometry" />
        </mxCell>
        <mxCell id="yTSs1VRWwanD6nTNHNd--21" style="edgeStyle=orthogonalEdgeStyle;rounded=0;orthogonalLoop=1;jettySize=auto;html=1;" edge="1" parent="1" source="yTSs1VRWwanD6nTNHNd--13" target="yTSs1VRWwanD6nTNHNd--3">
          <mxGeometry relative="1" as="geometry">
            <Array as="points">
              <mxPoint x="230" y="180" />
              <mxPoint x="230" y="180" />
            </Array>
          </mxGeometry>
        </mxCell>
        <mxCell id="yTSs1VRWwanD6nTNHNd--23" value="Saves" style="text;html=1;strokeColor=none;fillColor=none;align=center;verticalAlign=middle;whiteSpace=wrap;rounded=0;" vertex="1" parent="1">
          <mxGeometry x="530" y="150" width="60" height="30" as="geometry" />
        </mxCell>
        <mxCell id="yTSs1VRWwanD6nTNHNd--24" value="Ingests" style="text;html=1;align=center;verticalAlign=middle;resizable=0;points=[];autosize=1;strokeColor=none;fillColor=none;" vertex="1" parent="1">
          <mxGeometry x="260" y="150" width="60" height="30" as="geometry" />
        </mxCell>
        <mxCell id="yTSs1VRWwanD6nTNHNd--55" value="Narratives" style="shape=table;startSize=20;container=1;collapsible=0;childLayout=tableLayout;strokeColor=default;fontSize=16;" vertex="1" parent="1">
          <mxGeometry x="770" y="150" width="300" height="60" as="geometry" />
        </mxCell>
        <mxCell id="yTSs1VRWwanD6nTNHNd--56" value="" style="shape=tableRow;horizontal=0;startSize=140;swimlaneHead=0;swimlaneBody=0;strokeColor=inherit;top=0;left=0;bottom=0;right=0;collapsible=0;dropTarget=0;fillColor=none;points=[[0,0.5],[1,0.5]];portConstraint=eastwest;fontSize=16;" vertex="1" parent="yTSs1VRWwanD6nTNHNd--55">
          <mxGeometry y="20" width="300" height="20" as="geometry" />
        </mxCell>
        <mxCell id="yTSs1VRWwanD6nTNHNd--57" value="&lt;font style=&quot;font-size: 12px;&quot;&gt;prop1&lt;/font&gt;" style="shape=partialRectangle;html=1;whiteSpace=wrap;connectable=0;strokeColor=inherit;overflow=hidden;fillColor=none;top=0;left=0;bottom=0;right=0;pointerEvents=1;fontSize=16;verticalAlign=bottom;horizontal=1;labelPosition=center;verticalLabelPosition=middle;align=center;" vertex="1" parent="yTSs1VRWwanD6nTNHNd--56">
          <mxGeometry x="140" width="52" height="20" as="geometry">
            <mxRectangle width="52" height="20" as="alternateBounds" />
          </mxGeometry>
        </mxCell>
        <mxCell id="yTSs1VRWwanD6nTNHNd--58" value="&lt;font style=&quot;font-size: 12px;&quot;&gt;prop2&lt;/font&gt;" style="shape=partialRectangle;html=1;whiteSpace=wrap;connectable=0;strokeColor=inherit;overflow=hidden;fillColor=none;top=0;left=0;bottom=0;right=0;pointerEvents=1;fontSize=16;verticalAlign=bottom;" vertex="1" parent="yTSs1VRWwanD6nTNHNd--56">
          <mxGeometry x="192" width="56" height="20" as="geometry">
            <mxRectangle width="56" height="20" as="alternateBounds" />
          </mxGeometry>
        </mxCell>
        <mxCell id="yTSs1VRWwanD6nTNHNd--59" value="&lt;font style=&quot;font-size: 12px;&quot;&gt;prop3&lt;/font&gt;" style="shape=partialRectangle;html=1;whiteSpace=wrap;connectable=0;strokeColor=inherit;overflow=hidden;fillColor=none;top=0;left=0;bottom=0;right=0;pointerEvents=1;fontSize=16;verticalAlign=bottom;" vertex="1" parent="yTSs1VRWwanD6nTNHNd--56">
          <mxGeometry x="248" width="52" height="20" as="geometry">
            <mxRectangle width="52" height="20" as="alternateBounds" />
          </mxGeometry>
        </mxCell>
        <mxCell id="yTSs1VRWwanD6nTNHNd--60" value="" style="shape=tableRow;horizontal=0;startSize=140;swimlaneHead=0;swimlaneBody=0;strokeColor=inherit;top=0;left=0;bottom=0;right=0;collapsible=0;dropTarget=0;fillColor=none;points=[[0,0.5],[1,0.5]];portConstraint=eastwest;fontSize=16;" vertex="1" parent="yTSs1VRWwanD6nTNHNd--55">
          <mxGeometry y="40" width="300" height="20" as="geometry" />
        </mxCell>
        <mxCell id="yTSs1VRWwanD6nTNHNd--61" value="1" style="shape=partialRectangle;html=1;whiteSpace=wrap;connectable=0;strokeColor=inherit;overflow=hidden;fillColor=none;top=0;left=0;bottom=0;right=0;pointerEvents=1;fontSize=16;" vertex="1" parent="yTSs1VRWwanD6nTNHNd--60">
          <mxGeometry x="140" width="52" height="20" as="geometry">
            <mxRectangle width="52" height="20" as="alternateBounds" />
          </mxGeometry>
        </mxCell>
        <mxCell id="yTSs1VRWwanD6nTNHNd--62" value="2" style="shape=partialRectangle;html=1;whiteSpace=wrap;connectable=0;strokeColor=inherit;overflow=hidden;fillColor=none;top=0;left=0;bottom=0;right=0;pointerEvents=1;fontSize=16;" vertex="1" parent="yTSs1VRWwanD6nTNHNd--60">
          <mxGeometry x="192" width="56" height="20" as="geometry">
            <mxRectangle width="56" height="20" as="alternateBounds" />
          </mxGeometry>
        </mxCell>
        <mxCell id="yTSs1VRWwanD6nTNHNd--63" value="3" style="shape=partialRectangle;html=1;whiteSpace=wrap;connectable=0;strokeColor=inherit;overflow=hidden;fillColor=none;top=0;left=0;bottom=0;right=0;pointerEvents=1;fontSize=16;" vertex="1" parent="yTSs1VRWwanD6nTNHNd--60">
          <mxGeometry x="248" width="52" height="20" as="geometry">
            <mxRectangle width="52" height="20" as="alternateBounds" />
          </mxGeometry>
        </mxCell>
        <mxCell id="yTSs1VRWwanD6nTNHNd--68" value="Name" style="text;html=1;strokeColor=none;fillColor=none;align=center;verticalAlign=middle;whiteSpace=wrap;rounded=0;" vertex="1" parent="1">
          <mxGeometry x="810" y="170" width="60" height="20" as="geometry" />
        </mxCell>
        <mxCell id="yTSs1VRWwanD6nTNHNd--69" value="NarrativeA" style="text;html=1;strokeColor=none;fillColor=none;align=center;verticalAlign=middle;whiteSpace=wrap;rounded=0;" vertex="1" parent="1">
          <mxGeometry x="810" y="190" width="70" height="20" as="geometry" />
        </mxCell>
        <mxCell id="yTSs1VRWwanD6nTNHNd--71" style="edgeStyle=orthogonalEdgeStyle;rounded=0;orthogonalLoop=1;jettySize=auto;html=1;entryX=0;entryY=0.5;entryDx=0;entryDy=0;dashed=1;" edge="1" parent="1" source="yTSs1VRWwanD6nTNHNd--72" target="yTSs1VRWwanD6nTNHNd--83">
          <mxGeometry relative="1" as="geometry" />
        </mxCell>
        <mxCell id="yTSs1VRWwanD6nTNHNd--72" value="ID - DB" style="shape=cylinder3;whiteSpace=wrap;html=1;boundedLbl=1;backgroundOutline=1;size=15;" vertex="1" parent="1">
          <mxGeometry x="620" y="345" width="60" height="80" as="geometry" />
        </mxCell>
        <mxCell id="yTSs1VRWwanD6nTNHNd--73" value="ID" style="rounded=0;whiteSpace=wrap;html=1;" vertex="1" parent="1">
          <mxGeometry x="370" y="355" width="120" height="60" as="geometry" />
        </mxCell>
        <mxCell id="yTSs1VRWwanD6nTNHNd--74" style="edgeStyle=orthogonalEdgeStyle;rounded=0;orthogonalLoop=1;jettySize=auto;html=1;entryX=0;entryY=0.5;entryDx=0;entryDy=0;entryPerimeter=0;exitX=1;exitY=0.5;exitDx=0;exitDy=0;" edge="1" parent="1" source="yTSs1VRWwanD6nTNHNd--73" target="yTSs1VRWwanD6nTNHNd--72">
          <mxGeometry relative="1" as="geometry">
            <mxPoint x="625" y="385" as="sourcePoint" />
          </mxGeometry>
        </mxCell>
        <mxCell id="yTSs1VRWwanD6nTNHNd--75" value="NarrrativeA" style="swimlane;fontStyle=0;childLayout=stackLayout;horizontal=1;startSize=30;horizontalStack=0;resizeParent=1;resizeParentMax=0;resizeLast=0;collapsible=1;marginBottom=0;whiteSpace=wrap;html=1;" vertex="1" parent="1">
          <mxGeometry x="60" y="320" width="140" height="120" as="geometry" />
        </mxCell>
        <mxCell id="yTSs1VRWwanD6nTNHNd--76" value="prop1 = 7" style="text;strokeColor=none;fillColor=none;align=left;verticalAlign=middle;spacingLeft=4;spacingRight=4;overflow=hidden;points=[[0,0.5],[1,0.5]];portConstraint=eastwest;rotatable=0;whiteSpace=wrap;html=1;" vertex="1" parent="yTSs1VRWwanD6nTNHNd--75">
          <mxGeometry y="30" width="140" height="30" as="geometry" />
        </mxCell>
        <mxCell id="yTSs1VRWwanD6nTNHNd--77" value="prop2 = 2" style="text;strokeColor=none;fillColor=none;align=left;verticalAlign=middle;spacingLeft=4;spacingRight=4;overflow=hidden;points=[[0,0.5],[1,0.5]];portConstraint=eastwest;rotatable=0;whiteSpace=wrap;html=1;" vertex="1" parent="yTSs1VRWwanD6nTNHNd--75">
          <mxGeometry y="60" width="140" height="30" as="geometry" />
        </mxCell>
        <mxCell id="yTSs1VRWwanD6nTNHNd--78" value="prop3 = 3" style="text;strokeColor=none;fillColor=none;align=left;verticalAlign=middle;spacingLeft=4;spacingRight=4;overflow=hidden;points=[[0,0.5],[1,0.5]];portConstraint=eastwest;rotatable=0;whiteSpace=wrap;html=1;" vertex="1" parent="yTSs1VRWwanD6nTNHNd--75">
          <mxGeometry y="90" width="140" height="30" as="geometry" />
        </mxCell>
        <mxCell id="yTSs1VRWwanD6nTNHNd--79" style="edgeStyle=orthogonalEdgeStyle;rounded=0;orthogonalLoop=1;jettySize=auto;html=1;" edge="1" parent="1" source="yTSs1VRWwanD6nTNHNd--77" target="yTSs1VRWwanD6nTNHNd--73">
          <mxGeometry relative="1" as="geometry">
            <Array as="points">
              <mxPoint x="230" y="385" />
              <mxPoint x="230" y="385" />
            </Array>
          </mxGeometry>
        </mxCell>
        <mxCell id="yTSs1VRWwanD6nTNHNd--104" style="edgeStyle=orthogonalEdgeStyle;rounded=0;orthogonalLoop=1;jettySize=auto;html=1;exitX=0.5;exitY=1;exitDx=0;exitDy=0;entryX=0.539;entryY=-0.033;entryDx=0;entryDy=0;entryPerimeter=0;" edge="1" parent="1" source="yTSs1VRWwanD6nTNHNd--80" target="yTSs1VRWwanD6nTNHNd--19">
          <mxGeometry relative="1" as="geometry" />
        </mxCell>
        <mxCell id="yTSs1VRWwanD6nTNHNd--80" value="Saves" style="text;html=1;strokeColor=none;fillColor=none;align=center;verticalAlign=middle;whiteSpace=wrap;rounded=0;" vertex="1" parent="1">
          <mxGeometry x="530" y="355" width="60" height="30" as="geometry" />
        </mxCell>
        <mxCell id="yTSs1VRWwanD6nTNHNd--81" value="Ingests" style="text;html=1;align=center;verticalAlign=middle;resizable=0;points=[];autosize=1;strokeColor=none;fillColor=none;" vertex="1" parent="1">
          <mxGeometry x="770" y="1390" width="60" height="30" as="geometry" />
        </mxCell>
        <mxCell id="yTSs1VRWwanD6nTNHNd--82" value="Narratives" style="shape=table;startSize=20;container=1;collapsible=0;childLayout=tableLayout;strokeColor=default;fontSize=16;" vertex="1" parent="1">
          <mxGeometry x="770" y="355" width="300" height="60" as="geometry" />
        </mxCell>
        <mxCell id="yTSs1VRWwanD6nTNHNd--83" value="" style="shape=tableRow;horizontal=0;startSize=140;swimlaneHead=0;swimlaneBody=0;strokeColor=inherit;top=0;left=0;bottom=0;right=0;collapsible=0;dropTarget=0;fillColor=none;points=[[0,0.5],[1,0.5]];portConstraint=eastwest;fontSize=16;" vertex="1" parent="yTSs1VRWwanD6nTNHNd--82">
          <mxGeometry y="20" width="300" height="20" as="geometry" />
        </mxCell>
        <mxCell id="yTSs1VRWwanD6nTNHNd--84" value="&lt;font style=&quot;font-size: 12px;&quot;&gt;prop1&lt;/font&gt;" style="shape=partialRectangle;html=1;whiteSpace=wrap;connectable=0;strokeColor=inherit;overflow=hidden;fillColor=none;top=0;left=0;bottom=0;right=0;pointerEvents=1;fontSize=16;verticalAlign=bottom;horizontal=1;labelPosition=center;verticalLabelPosition=middle;align=center;" vertex="1" parent="yTSs1VRWwanD6nTNHNd--83">
          <mxGeometry x="140" width="52" height="20" as="geometry">
            <mxRectangle width="52" height="20" as="alternateBounds" />
          </mxGeometry>
        </mxCell>
        <mxCell id="yTSs1VRWwanD6nTNHNd--85" value="&lt;font style=&quot;font-size: 12px;&quot;&gt;prop2&lt;/font&gt;" style="shape=partialRectangle;html=1;whiteSpace=wrap;connectable=0;strokeColor=inherit;overflow=hidden;fillColor=none;top=0;left=0;bottom=0;right=0;pointerEvents=1;fontSize=16;verticalAlign=bottom;" vertex="1" parent="yTSs1VRWwanD6nTNHNd--83">
          <mxGeometry x="192" width="56" height="20" as="geometry">
            <mxRectangle width="56" height="20" as="alternateBounds" />
          </mxGeometry>
        </mxCell>
        <mxCell id="yTSs1VRWwanD6nTNHNd--86" value="&lt;font style=&quot;font-size: 12px;&quot;&gt;prop3&lt;/font&gt;" style="shape=partialRectangle;html=1;whiteSpace=wrap;connectable=0;strokeColor=inherit;overflow=hidden;fillColor=none;top=0;left=0;bottom=0;right=0;pointerEvents=1;fontSize=16;verticalAlign=bottom;" vertex="1" parent="yTSs1VRWwanD6nTNHNd--83">
          <mxGeometry x="248" width="52" height="20" as="geometry">
            <mxRectangle width="52" height="20" as="alternateBounds" />
          </mxGeometry>
        </mxCell>
        <mxCell id="yTSs1VRWwanD6nTNHNd--87" value="" style="shape=tableRow;horizontal=0;startSize=140;swimlaneHead=0;swimlaneBody=0;strokeColor=inherit;top=0;left=0;bottom=0;right=0;collapsible=0;dropTarget=0;fillColor=none;points=[[0,0.5],[1,0.5]];portConstraint=eastwest;fontSize=16;" vertex="1" parent="yTSs1VRWwanD6nTNHNd--82">
          <mxGeometry y="40" width="300" height="20" as="geometry" />
        </mxCell>
        <mxCell id="yTSs1VRWwanD6nTNHNd--88" value="7" style="shape=partialRectangle;html=1;whiteSpace=wrap;connectable=0;strokeColor=inherit;overflow=hidden;fillColor=none;top=0;left=0;bottom=0;right=0;pointerEvents=1;fontSize=16;" vertex="1" parent="yTSs1VRWwanD6nTNHNd--87">
          <mxGeometry x="140" width="52" height="20" as="geometry">
            <mxRectangle width="52" height="20" as="alternateBounds" />
          </mxGeometry>
        </mxCell>
        <mxCell id="yTSs1VRWwanD6nTNHNd--89" value="2" style="shape=partialRectangle;html=1;whiteSpace=wrap;connectable=0;strokeColor=inherit;overflow=hidden;fillColor=none;top=0;left=0;bottom=0;right=0;pointerEvents=1;fontSize=16;" vertex="1" parent="yTSs1VRWwanD6nTNHNd--87">
          <mxGeometry x="192" width="56" height="20" as="geometry">
            <mxRectangle width="56" height="20" as="alternateBounds" />
          </mxGeometry>
        </mxCell>
        <mxCell id="yTSs1VRWwanD6nTNHNd--90" value="3" style="shape=partialRectangle;html=1;whiteSpace=wrap;connectable=0;strokeColor=inherit;overflow=hidden;fillColor=none;top=0;left=0;bottom=0;right=0;pointerEvents=1;fontSize=16;" vertex="1" parent="yTSs1VRWwanD6nTNHNd--87">
          <mxGeometry x="248" width="52" height="20" as="geometry">
            <mxRectangle width="52" height="20" as="alternateBounds" />
          </mxGeometry>
        </mxCell>
        <mxCell id="yTSs1VRWwanD6nTNHNd--91" value="Name" style="text;html=1;strokeColor=none;fillColor=none;align=center;verticalAlign=middle;whiteSpace=wrap;rounded=0;" vertex="1" parent="1">
          <mxGeometry x="810" y="375" width="60" height="20" as="geometry" />
        </mxCell>
        <mxCell id="yTSs1VRWwanD6nTNHNd--92" value="NarrativeA" style="text;html=1;strokeColor=none;fillColor=none;align=center;verticalAlign=middle;whiteSpace=wrap;rounded=0;" vertex="1" parent="1">
          <mxGeometry x="810" y="395" width="70" height="20" as="geometry" />
        </mxCell>
        <mxCell id="yTSs1VRWwanD6nTNHNd--93" value="Audit Log" style="shape=table;startSize=20;container=1;collapsible=0;childLayout=tableLayout;strokeColor=default;fontSize=16;" vertex="1" parent="1">
          <mxGeometry x="770" y="435" width="300" height="60" as="geometry" />
        </mxCell>
        <mxCell id="yTSs1VRWwanD6nTNHNd--94" value="" style="shape=tableRow;horizontal=0;startSize=140;swimlaneHead=0;swimlaneBody=0;strokeColor=inherit;top=0;left=0;bottom=0;right=0;collapsible=0;dropTarget=0;fillColor=none;points=[[0,0.5],[1,0.5]];portConstraint=eastwest;fontSize=16;" vertex="1" parent="yTSs1VRWwanD6nTNHNd--93">
          <mxGeometry y="20" width="300" height="20" as="geometry" />
        </mxCell>
        <mxCell id="yTSs1VRWwanD6nTNHNd--95" value="&lt;font style=&quot;font-size: 12px;&quot;&gt;prop&lt;/font&gt;" style="shape=partialRectangle;html=1;whiteSpace=wrap;connectable=0;strokeColor=inherit;overflow=hidden;fillColor=none;top=0;left=0;bottom=0;right=0;pointerEvents=1;fontSize=16;verticalAlign=bottom;horizontal=1;labelPosition=center;verticalLabelPosition=middle;align=center;" vertex="1" parent="yTSs1VRWwanD6nTNHNd--94">
          <mxGeometry x="140" width="52" height="20" as="geometry">
            <mxRectangle width="52" height="20" as="alternateBounds" />
          </mxGeometry>
        </mxCell>
        <mxCell id="yTSs1VRWwanD6nTNHNd--96" value="&lt;font style=&quot;font-size: 12px;&quot;&gt;oldValue&lt;/font&gt;" style="shape=partialRectangle;html=1;whiteSpace=wrap;connectable=0;strokeColor=inherit;overflow=hidden;fillColor=none;top=0;left=0;bottom=0;right=0;pointerEvents=1;fontSize=16;verticalAlign=bottom;" vertex="1" parent="yTSs1VRWwanD6nTNHNd--94">
          <mxGeometry x="192" width="56" height="20" as="geometry">
            <mxRectangle width="56" height="20" as="alternateBounds" />
          </mxGeometry>
        </mxCell>
        <mxCell id="yTSs1VRWwanD6nTNHNd--97" value="&lt;font style=&quot;font-size: 12px;&quot;&gt;newValue&lt;/font&gt;" style="shape=partialRectangle;html=1;whiteSpace=wrap;connectable=0;strokeColor=#b85450;overflow=hidden;fillColor=#f8cecc;top=0;left=0;bottom=0;right=0;pointerEvents=1;fontSize=16;verticalAlign=bottom;" vertex="1" parent="yTSs1VRWwanD6nTNHNd--94">
          <mxGeometry x="248" width="52" height="20" as="geometry">
            <mxRectangle width="52" height="20" as="alternateBounds" />
          </mxGeometry>
        </mxCell>
        <mxCell id="yTSs1VRWwanD6nTNHNd--98" value="" style="shape=tableRow;horizontal=0;startSize=140;swimlaneHead=0;swimlaneBody=0;strokeColor=inherit;top=0;left=0;bottom=0;right=0;collapsible=0;dropTarget=0;fillColor=none;points=[[0,0.5],[1,0.5]];portConstraint=eastwest;fontSize=16;" vertex="1" parent="yTSs1VRWwanD6nTNHNd--93">
          <mxGeometry y="40" width="300" height="20" as="geometry" />
        </mxCell>
        <mxCell id="yTSs1VRWwanD6nTNHNd--99" value="&lt;font style=&quot;font-size: 11px;&quot;&gt;prop1&lt;/font&gt;" style="shape=partialRectangle;html=1;whiteSpace=wrap;connectable=0;strokeColor=inherit;overflow=hidden;fillColor=none;top=0;left=0;bottom=0;right=0;pointerEvents=1;fontSize=16;" vertex="1" parent="yTSs1VRWwanD6nTNHNd--98">
          <mxGeometry x="140" width="52" height="20" as="geometry">
            <mxRectangle width="52" height="20" as="alternateBounds" />
          </mxGeometry>
        </mxCell>
        <mxCell id="yTSs1VRWwanD6nTNHNd--100" value="1" style="shape=partialRectangle;html=1;whiteSpace=wrap;connectable=0;strokeColor=inherit;overflow=hidden;fillColor=none;top=0;left=0;bottom=0;right=0;pointerEvents=1;fontSize=16;" vertex="1" parent="yTSs1VRWwanD6nTNHNd--98">
          <mxGeometry x="192" width="56" height="20" as="geometry">
            <mxRectangle width="56" height="20" as="alternateBounds" />
          </mxGeometry>
        </mxCell>
        <mxCell id="yTSs1VRWwanD6nTNHNd--101" value="7" style="shape=partialRectangle;html=1;whiteSpace=wrap;connectable=0;strokeColor=#b85450;overflow=hidden;fillColor=#f8cecc;top=0;left=0;bottom=0;right=0;pointerEvents=1;fontSize=16;" vertex="1" parent="yTSs1VRWwanD6nTNHNd--98">
          <mxGeometry x="248" width="52" height="20" as="geometry">
            <mxRectangle width="52" height="20" as="alternateBounds" />
          </mxGeometry>
        </mxCell>
        <mxCell id="yTSs1VRWwanD6nTNHNd--102" value="Name" style="text;html=1;strokeColor=none;fillColor=none;align=center;verticalAlign=middle;whiteSpace=wrap;rounded=0;" vertex="1" parent="1">
          <mxGeometry x="810" y="455" width="60" height="20" as="geometry" />
        </mxCell>
        <mxCell id="yTSs1VRWwanD6nTNHNd--103" value="NarrativeA" style="text;html=1;strokeColor=none;fillColor=none;align=center;verticalAlign=middle;whiteSpace=wrap;rounded=0;" vertex="1" parent="1">
          <mxGeometry x="810" y="475" width="70" height="20" as="geometry" />
        </mxCell>
        <mxCell id="yTSs1VRWwanD6nTNHNd--142" style="edgeStyle=orthogonalEdgeStyle;rounded=0;orthogonalLoop=1;jettySize=auto;html=1;entryX=0;entryY=0.5;entryDx=0;entryDy=0;dashed=1;" edge="1" parent="1" source="yTSs1VRWwanD6nTNHNd--140" target="yTSs1VRWwanD6nTNHNd--98">
          <mxGeometry relative="1" as="geometry">
            <mxPoint x="690" y="540" as="targetPoint" />
            <Array as="points">
              <mxPoint x="740" y="590" />
              <mxPoint x="740" y="485" />
            </Array>
          </mxGeometry>
        </mxCell>
        <mxCell id="yTSs1VRWwanD6nTNHNd--140" value="IsUpdate?" style="rounded=0;whiteSpace=wrap;html=1;" vertex="1" parent="1">
          <mxGeometry x="462.5" y="560" width="185" height="60" as="geometry" />
        </mxCell>
        <mxCell id="yTSs1VRWwanD6nTNHNd--144" value="Yes" style="text;html=1;strokeColor=none;fillColor=none;align=center;verticalAlign=middle;whiteSpace=wrap;rounded=0;rotation=0;" vertex="1" parent="1">
          <mxGeometry x="690" y="530" width="60" height="30" as="geometry" />
        </mxCell>
        <mxCell id="yTSs1VRWwanD6nTNHNd--147" value="" style="edgeStyle=orthogonalEdgeStyle;rounded=0;orthogonalLoop=1;jettySize=auto;html=1;" edge="1" parent="1" source="yTSs1VRWwanD6nTNHNd--148" target="yTSs1VRWwanD6nTNHNd--183">
          <mxGeometry relative="1" as="geometry" />
        </mxCell>
        <mxCell id="yTSs1VRWwanD6nTNHNd--148" value="SaveChangeInterceptor" style="rounded=0;whiteSpace=wrap;html=1;dashed=1;dashPattern=8 8;" vertex="1" parent="1">
          <mxGeometry x="480" y="1319" width="150" height="60" as="geometry" />
        </mxCell>
        <mxCell id="yTSs1VRWwanD6nTNHNd--149" style="edgeStyle=orthogonalEdgeStyle;rounded=0;orthogonalLoop=1;jettySize=auto;html=1;entryX=0;entryY=0.5;entryDx=0;entryDy=0;dashed=1;" edge="1" parent="1" source="yTSs1VRWwanD6nTNHNd--150" target="yTSs1VRWwanD6nTNHNd--161">
          <mxGeometry relative="1" as="geometry" />
        </mxCell>
        <mxCell id="yTSs1VRWwanD6nTNHNd--150" value="FDC - DB" style="shape=cylinder3;whiteSpace=wrap;html=1;boundedLbl=1;backgroundOutline=1;size=15;" vertex="1" parent="1">
          <mxGeometry x="620" y="1205" width="60" height="80" as="geometry" />
        </mxCell>
        <mxCell id="yTSs1VRWwanD6nTNHNd--151" value="FDC" style="rounded=0;whiteSpace=wrap;html=1;" vertex="1" parent="1">
          <mxGeometry x="370" y="1215" width="120" height="60" as="geometry" />
        </mxCell>
        <mxCell id="yTSs1VRWwanD6nTNHNd--152" style="edgeStyle=orthogonalEdgeStyle;rounded=0;orthogonalLoop=1;jettySize=auto;html=1;entryX=0;entryY=0.5;entryDx=0;entryDy=0;entryPerimeter=0;exitX=1;exitY=0.5;exitDx=0;exitDy=0;" edge="1" parent="1" source="yTSs1VRWwanD6nTNHNd--151" target="yTSs1VRWwanD6nTNHNd--150">
          <mxGeometry relative="1" as="geometry">
            <mxPoint x="625" y="1245" as="sourcePoint" />
          </mxGeometry>
        </mxCell>
        <mxCell id="yTSs1VRWwanD6nTNHNd--153" value="TC" style="swimlane;fontStyle=0;childLayout=stackLayout;horizontal=1;startSize=30;horizontalStack=0;resizeParent=1;resizeParentMax=0;resizeLast=0;collapsible=1;marginBottom=0;whiteSpace=wrap;html=1;" vertex="1" parent="1">
          <mxGeometry x="60" y="1180" width="140" height="120" as="geometry" />
        </mxCell>
        <mxCell id="yTSs1VRWwanD6nTNHNd--154" value="prop1 = 7" style="text;strokeColor=none;fillColor=none;align=left;verticalAlign=middle;spacingLeft=4;spacingRight=4;overflow=hidden;points=[[0,0.5],[1,0.5]];portConstraint=eastwest;rotatable=0;whiteSpace=wrap;html=1;" vertex="1" parent="yTSs1VRWwanD6nTNHNd--153">
          <mxGeometry y="30" width="140" height="30" as="geometry" />
        </mxCell>
        <mxCell id="yTSs1VRWwanD6nTNHNd--155" value="prop2 = 2" style="text;strokeColor=none;fillColor=none;align=left;verticalAlign=middle;spacingLeft=4;spacingRight=4;overflow=hidden;points=[[0,0.5],[1,0.5]];portConstraint=eastwest;rotatable=0;whiteSpace=wrap;html=1;" vertex="1" parent="yTSs1VRWwanD6nTNHNd--153">
          <mxGeometry y="60" width="140" height="30" as="geometry" />
        </mxCell>
        <mxCell id="yTSs1VRWwanD6nTNHNd--156" value="prop3 = 3" style="text;strokeColor=none;fillColor=none;align=left;verticalAlign=middle;spacingLeft=4;spacingRight=4;overflow=hidden;points=[[0,0.5],[1,0.5]];portConstraint=eastwest;rotatable=0;whiteSpace=wrap;html=1;" vertex="1" parent="yTSs1VRWwanD6nTNHNd--153">
          <mxGeometry y="90" width="140" height="30" as="geometry" />
        </mxCell>
        <mxCell id="yTSs1VRWwanD6nTNHNd--157" style="edgeStyle=orthogonalEdgeStyle;rounded=0;orthogonalLoop=1;jettySize=auto;html=1;" edge="1" parent="1" source="yTSs1VRWwanD6nTNHNd--155" target="yTSs1VRWwanD6nTNHNd--151">
          <mxGeometry relative="1" as="geometry">
            <Array as="points">
              <mxPoint x="230" y="1245" />
              <mxPoint x="230" y="1245" />
            </Array>
          </mxGeometry>
        </mxCell>
        <mxCell id="yTSs1VRWwanD6nTNHNd--158" style="edgeStyle=orthogonalEdgeStyle;rounded=0;orthogonalLoop=1;jettySize=auto;html=1;exitX=0.5;exitY=1;exitDx=0;exitDy=0;entryX=0.539;entryY=-0.033;entryDx=0;entryDy=0;entryPerimeter=0;" edge="1" parent="1" source="yTSs1VRWwanD6nTNHNd--159" target="yTSs1VRWwanD6nTNHNd--148">
          <mxGeometry relative="1" as="geometry" />
        </mxCell>
        <mxCell id="yTSs1VRWwanD6nTNHNd--159" value="Saves" style="text;html=1;strokeColor=none;fillColor=none;align=center;verticalAlign=middle;whiteSpace=wrap;rounded=0;" vertex="1" parent="1">
          <mxGeometry x="530" y="1215" width="60" height="30" as="geometry" />
        </mxCell>
        <mxCell id="yTSs1VRWwanD6nTNHNd--160" value="TC" style="shape=table;startSize=20;container=1;collapsible=0;childLayout=tableLayout;strokeColor=default;fontSize=16;" vertex="1" parent="1">
          <mxGeometry x="770" y="1215" width="300" height="60" as="geometry" />
        </mxCell>
        <mxCell id="yTSs1VRWwanD6nTNHNd--161" value="" style="shape=tableRow;horizontal=0;startSize=140;swimlaneHead=0;swimlaneBody=0;strokeColor=inherit;top=0;left=0;bottom=0;right=0;collapsible=0;dropTarget=0;fillColor=none;points=[[0,0.5],[1,0.5]];portConstraint=eastwest;fontSize=16;" vertex="1" parent="yTSs1VRWwanD6nTNHNd--160">
          <mxGeometry y="20" width="300" height="20" as="geometry" />
        </mxCell>
        <mxCell id="yTSs1VRWwanD6nTNHNd--162" value="&lt;font style=&quot;font-size: 12px;&quot;&gt;prop1&lt;/font&gt;" style="shape=partialRectangle;html=1;whiteSpace=wrap;connectable=0;strokeColor=inherit;overflow=hidden;fillColor=none;top=0;left=0;bottom=0;right=0;pointerEvents=1;fontSize=16;verticalAlign=bottom;horizontal=1;labelPosition=center;verticalLabelPosition=middle;align=center;" vertex="1" parent="yTSs1VRWwanD6nTNHNd--161">
          <mxGeometry x="140" width="52" height="20" as="geometry">
            <mxRectangle width="52" height="20" as="alternateBounds" />
          </mxGeometry>
        </mxCell>
        <mxCell id="yTSs1VRWwanD6nTNHNd--163" value="&lt;font style=&quot;font-size: 12px;&quot;&gt;prop2&lt;/font&gt;" style="shape=partialRectangle;html=1;whiteSpace=wrap;connectable=0;strokeColor=inherit;overflow=hidden;fillColor=none;top=0;left=0;bottom=0;right=0;pointerEvents=1;fontSize=16;verticalAlign=bottom;" vertex="1" parent="yTSs1VRWwanD6nTNHNd--161">
          <mxGeometry x="192" width="56" height="20" as="geometry">
            <mxRectangle width="56" height="20" as="alternateBounds" />
          </mxGeometry>
        </mxCell>
        <mxCell id="yTSs1VRWwanD6nTNHNd--164" value="&lt;font style=&quot;font-size: 12px;&quot;&gt;prop3&lt;/font&gt;" style="shape=partialRectangle;html=1;whiteSpace=wrap;connectable=0;strokeColor=inherit;overflow=hidden;fillColor=none;top=0;left=0;bottom=0;right=0;pointerEvents=1;fontSize=16;verticalAlign=bottom;" vertex="1" parent="yTSs1VRWwanD6nTNHNd--161">
          <mxGeometry x="248" width="52" height="20" as="geometry">
            <mxRectangle width="52" height="20" as="alternateBounds" />
          </mxGeometry>
        </mxCell>
        <mxCell id="yTSs1VRWwanD6nTNHNd--165" value="" style="shape=tableRow;horizontal=0;startSize=140;swimlaneHead=0;swimlaneBody=0;strokeColor=inherit;top=0;left=0;bottom=0;right=0;collapsible=0;dropTarget=0;fillColor=none;points=[[0,0.5],[1,0.5]];portConstraint=eastwest;fontSize=16;" vertex="1" parent="yTSs1VRWwanD6nTNHNd--160">
          <mxGeometry y="40" width="300" height="20" as="geometry" />
        </mxCell>
        <mxCell id="yTSs1VRWwanD6nTNHNd--166" value="7" style="shape=partialRectangle;html=1;whiteSpace=wrap;connectable=0;strokeColor=inherit;overflow=hidden;fillColor=none;top=0;left=0;bottom=0;right=0;pointerEvents=1;fontSize=16;" vertex="1" parent="yTSs1VRWwanD6nTNHNd--165">
          <mxGeometry x="140" width="52" height="20" as="geometry">
            <mxRectangle width="52" height="20" as="alternateBounds" />
          </mxGeometry>
        </mxCell>
        <mxCell id="yTSs1VRWwanD6nTNHNd--167" value="2" style="shape=partialRectangle;html=1;whiteSpace=wrap;connectable=0;strokeColor=inherit;overflow=hidden;fillColor=none;top=0;left=0;bottom=0;right=0;pointerEvents=1;fontSize=16;" vertex="1" parent="yTSs1VRWwanD6nTNHNd--165">
          <mxGeometry x="192" width="56" height="20" as="geometry">
            <mxRectangle width="56" height="20" as="alternateBounds" />
          </mxGeometry>
        </mxCell>
        <mxCell id="yTSs1VRWwanD6nTNHNd--168" value="3" style="shape=partialRectangle;html=1;whiteSpace=wrap;connectable=0;strokeColor=inherit;overflow=hidden;fillColor=none;top=0;left=0;bottom=0;right=0;pointerEvents=1;fontSize=16;" vertex="1" parent="yTSs1VRWwanD6nTNHNd--165">
          <mxGeometry x="248" width="52" height="20" as="geometry">
            <mxRectangle width="52" height="20" as="alternateBounds" />
          </mxGeometry>
        </mxCell>
        <mxCell id="yTSs1VRWwanD6nTNHNd--169" value="Name" style="text;html=1;strokeColor=none;fillColor=none;align=center;verticalAlign=middle;whiteSpace=wrap;rounded=0;" vertex="1" parent="1">
          <mxGeometry x="810" y="1235" width="60" height="20" as="geometry" />
        </mxCell>
        <mxCell id="yTSs1VRWwanD6nTNHNd--170" value="NarrativeA" style="text;html=1;strokeColor=none;fillColor=none;align=center;verticalAlign=middle;whiteSpace=wrap;rounded=0;" vertex="1" parent="1">
          <mxGeometry x="810" y="1255" width="70" height="20" as="geometry" />
        </mxCell>
        <mxCell id="yTSs1VRWwanD6nTNHNd--171" value="PropertyChanges" style="shape=table;startSize=20;container=1;collapsible=0;childLayout=tableLayout;strokeColor=default;fontSize=16;" vertex="1" parent="1">
          <mxGeometry x="770" y="1295" width="310" height="60" as="geometry" />
        </mxCell>
        <mxCell id="yTSs1VRWwanD6nTNHNd--172" value="" style="shape=tableRow;horizontal=0;startSize=140;swimlaneHead=0;swimlaneBody=0;strokeColor=inherit;top=0;left=0;bottom=0;right=0;collapsible=0;dropTarget=0;fillColor=none;points=[[0,0.5],[1,0.5]];portConstraint=eastwest;fontSize=16;" vertex="1" parent="yTSs1VRWwanD6nTNHNd--171">
          <mxGeometry y="20" width="310" height="20" as="geometry" />
        </mxCell>
        <mxCell id="yTSs1VRWwanD6nTNHNd--173" value="&lt;font style=&quot;font-size: 12px;&quot;&gt;prop&lt;/font&gt;" style="shape=partialRectangle;html=1;whiteSpace=wrap;connectable=0;strokeColor=inherit;overflow=hidden;fillColor=none;top=0;left=0;bottom=0;right=0;pointerEvents=1;fontSize=16;verticalAlign=bottom;horizontal=1;labelPosition=center;verticalLabelPosition=middle;align=center;" vertex="1" parent="yTSs1VRWwanD6nTNHNd--172">
          <mxGeometry x="140" width="55" height="20" as="geometry">
            <mxRectangle width="55" height="20" as="alternateBounds" />
          </mxGeometry>
        </mxCell>
        <mxCell id="yTSs1VRWwanD6nTNHNd--174" value="&lt;font style=&quot;font-size: 12px;&quot;&gt;oldValue&lt;/font&gt;" style="shape=partialRectangle;html=1;whiteSpace=wrap;connectable=0;strokeColor=inherit;overflow=hidden;fillColor=none;top=0;left=0;bottom=0;right=0;pointerEvents=1;fontSize=16;verticalAlign=bottom;" vertex="1" parent="yTSs1VRWwanD6nTNHNd--172">
          <mxGeometry x="195" width="60" height="20" as="geometry">
            <mxRectangle width="60" height="20" as="alternateBounds" />
          </mxGeometry>
        </mxCell>
        <mxCell id="yTSs1VRWwanD6nTNHNd--175" value="&lt;font style=&quot;font-size: 12px;&quot;&gt;newValue&lt;/font&gt;" style="shape=partialRectangle;html=1;whiteSpace=wrap;connectable=0;strokeColor=#b85450;overflow=hidden;fillColor=#f8cecc;top=0;left=0;bottom=0;right=0;pointerEvents=1;fontSize=16;verticalAlign=bottom;" vertex="1" parent="yTSs1VRWwanD6nTNHNd--172">
          <mxGeometry x="255" width="55" height="20" as="geometry">
            <mxRectangle width="55" height="20" as="alternateBounds" />
          </mxGeometry>
        </mxCell>
        <mxCell id="yTSs1VRWwanD6nTNHNd--176" value="" style="shape=tableRow;horizontal=0;startSize=140;swimlaneHead=0;swimlaneBody=0;strokeColor=inherit;top=0;left=0;bottom=0;right=0;collapsible=0;dropTarget=0;fillColor=none;points=[[0,0.5],[1,0.5]];portConstraint=eastwest;fontSize=16;" vertex="1" parent="yTSs1VRWwanD6nTNHNd--171">
          <mxGeometry y="40" width="310" height="20" as="geometry" />
        </mxCell>
        <mxCell id="yTSs1VRWwanD6nTNHNd--177" value="&lt;font style=&quot;font-size: 11px;&quot;&gt;prop1&lt;/font&gt;" style="shape=partialRectangle;html=1;whiteSpace=wrap;connectable=0;strokeColor=inherit;overflow=hidden;fillColor=none;top=0;left=0;bottom=0;right=0;pointerEvents=1;fontSize=16;" vertex="1" parent="yTSs1VRWwanD6nTNHNd--176">
          <mxGeometry x="140" width="55" height="20" as="geometry">
            <mxRectangle width="55" height="20" as="alternateBounds" />
          </mxGeometry>
        </mxCell>
        <mxCell id="yTSs1VRWwanD6nTNHNd--178" value="1" style="shape=partialRectangle;html=1;whiteSpace=wrap;connectable=0;strokeColor=inherit;overflow=hidden;fillColor=none;top=0;left=0;bottom=0;right=0;pointerEvents=1;fontSize=16;" vertex="1" parent="yTSs1VRWwanD6nTNHNd--176">
          <mxGeometry x="195" width="60" height="20" as="geometry">
            <mxRectangle width="60" height="20" as="alternateBounds" />
          </mxGeometry>
        </mxCell>
        <mxCell id="yTSs1VRWwanD6nTNHNd--179" value="7" style="shape=partialRectangle;html=1;whiteSpace=wrap;connectable=0;strokeColor=#b85450;overflow=hidden;fillColor=#f8cecc;top=0;left=0;bottom=0;right=0;pointerEvents=1;fontSize=16;" vertex="1" parent="yTSs1VRWwanD6nTNHNd--176">
          <mxGeometry x="255" width="55" height="20" as="geometry">
            <mxRectangle width="55" height="20" as="alternateBounds" />
          </mxGeometry>
        </mxCell>
        <mxCell id="yTSs1VRWwanD6nTNHNd--180" value="Name" style="text;html=1;strokeColor=none;fillColor=none;align=center;verticalAlign=middle;whiteSpace=wrap;rounded=0;" vertex="1" parent="1">
          <mxGeometry x="810" y="1315" width="60" height="20" as="geometry" />
        </mxCell>
        <mxCell id="yTSs1VRWwanD6nTNHNd--181" value="NarrativeA" style="text;html=1;strokeColor=none;fillColor=none;align=center;verticalAlign=middle;whiteSpace=wrap;rounded=0;" vertex="1" parent="1">
          <mxGeometry x="810" y="1335" width="70" height="20" as="geometry" />
        </mxCell>
        <mxCell id="yTSs1VRWwanD6nTNHNd--182" style="edgeStyle=orthogonalEdgeStyle;rounded=0;orthogonalLoop=1;jettySize=auto;html=1;entryX=0;entryY=0.5;entryDx=0;entryDy=0;dashed=1;" edge="1" parent="1" source="yTSs1VRWwanD6nTNHNd--183" target="yTSs1VRWwanD6nTNHNd--176">
          <mxGeometry relative="1" as="geometry">
            <mxPoint x="690" y="1400" as="targetPoint" />
            <Array as="points">
              <mxPoint x="740" y="1450" />
              <mxPoint x="740" y="1345" />
            </Array>
          </mxGeometry>
        </mxCell>
        <mxCell id="yTSs1VRWwanD6nTNHNd--183" value="IsUpdate?" style="rounded=0;whiteSpace=wrap;html=1;" vertex="1" parent="1">
          <mxGeometry x="462.5" y="1420" width="185" height="60" as="geometry" />
        </mxCell>
        <mxCell id="yTSs1VRWwanD6nTNHNd--184" value="Yes" style="text;html=1;strokeColor=none;fillColor=none;align=center;verticalAlign=middle;whiteSpace=wrap;rounded=0;rotation=0;" vertex="1" parent="1">
          <mxGeometry x="690" y="1390" width="60" height="30" as="geometry" />
        </mxCell>
        <mxCell id="ZWjIvehVjLbOtGVygPy2-1" value="" style="rounded=0;whiteSpace=wrap;html=1;" vertex="1" parent="1">
          <mxGeometry x="70" y="713" width="460" height="330" as="geometry" />
        </mxCell>
        <mxCell id="ZWjIvehVjLbOtGVygPy2-4" value="" style="rounded=0;whiteSpace=wrap;html=1;fillColor=#ffe6cc;strokeColor=none;" vertex="1" parent="1">
          <mxGeometry x="95" y="841" width="370" height="10" as="geometry" />
        </mxCell>
        <mxCell id="ZWjIvehVjLbOtGVygPy2-2" value="&#xa;&lt;span style=&quot;color: rgb(0, 0, 0); font-family: Helvetica; font-size: 12px; font-style: normal; font-variant-ligatures: normal; font-variant-caps: normal; font-weight: 400; letter-spacing: normal; orphans: 2; text-align: center; text-indent: 0px; text-transform: none; widows: 2; word-spacing: 0px; -webkit-text-stroke-width: 0px; background-color: rgb(251, 251, 251); text-decoration-thickness: initial; text-decoration-style: initial; text-decoration-color: initial; float: none; display: inline !important;&quot;&gt;SaveChangeInterceptor&lt;/span&gt;&#xa;&#xa;" style="text;html=1;strokeColor=none;fillColor=none;align=center;verticalAlign=middle;whiteSpace=wrap;rounded=0;" vertex="1" parent="1">
          <mxGeometry x="110" y="723" width="60" height="30" as="geometry" />
        </mxCell>
        <mxCell id="ZWjIvehVjLbOtGVygPy2-3" value="Whitelist: objects we want to track changes for and what types of changes e.g.&lt;br&gt;&lt;br&gt;&lt;br&gt;Narratives, { EventType.Modify }&lt;br&gt;&lt;br&gt;Portfolios, { EventType.Create, EventType.Modify, EventType.Delete }" style="text;html=1;strokeColor=none;fillColor=none;align=center;verticalAlign=middle;whiteSpace=wrap;rounded=0;" vertex="1" parent="1">
          <mxGeometry x="80" y="743" width="400" height="120" as="geometry" />
        </mxCell>
        <mxCell id="ZWjIvehVjLbOtGVygPy2-5" value="Iterate over EntityEntries in the change tracker, check if it meets whitelist criteria and if it does then create an entry in the new Audit table (name tbd)&amp;nbsp;" style="text;html=1;strokeColor=none;fillColor=none;align=center;verticalAlign=middle;whiteSpace=wrap;rounded=0;" vertex="1" parent="1">
          <mxGeometry x="85" y="870" width="410" height="80" as="geometry" />
        </mxCell>
        <mxCell id="ZWjIvehVjLbOtGVygPy2-6" value="Whitelist example" style="swimlane;fontStyle=0;childLayout=stackLayout;horizontal=1;startSize=20;horizontalStack=0;resizeParent=1;resizeParentMax=0;resizeLast=0;collapsible=1;marginBottom=0;whiteSpace=wrap;html=1;" vertex="1" parent="1">
          <mxGeometry x="80" y="785" width="410" height="80" as="geometry" />
        </mxCell>
        <mxCell id="ZWjIvehVjLbOtGVygPy2-11" value="" style="endArrow=none;html=1;rounded=0;exitX=0;exitY=0.75;exitDx=0;exitDy=0;" edge="1" parent="1" source="ZWjIvehVjLbOtGVygPy2-3">
          <mxGeometry width="50" height="50" relative="1" as="geometry">
            <mxPoint x="580" y="760" as="sourcePoint" />
            <mxPoint x="490" y="833" as="targetPoint" />
          </mxGeometry>
        </mxCell>
        <mxCell id="ZWjIvehVjLbOtGVygPy2-13" value="" style="endArrow=none;dashed=1;html=1;dashPattern=1 3;strokeWidth=2;rounded=0;exitX=0.5;exitY=0;exitDx=0;exitDy=0;" edge="1" parent="1" source="ZWjIvehVjLbOtGVygPy2-1">
          <mxGeometry width="50" height="50" relative="1" as="geometry">
            <mxPoint x="430" y="569" as="sourcePoint" />
            <mxPoint x="480" y="519" as="targetPoint" />
          </mxGeometry>
        </mxCell>
      </root>
    </mxGraphModel>
  </diagram>
</mxfile>
